<svg xmlns="http://www.w3.org/2000/svg" xmlns:xlink="http://www.w3.org/1999/xlink" width="500" zoomAndPan="magnify" viewBox="0 0 375 374.999991" height="500" preserveAspectRatio="xMidYMid meet" version="1.0"><defs><g/></defs><g fill="#e84947" fill-opacity="1"><g transform="translate(72.788467, 200.999987)"><g><path d="M 18.515625 -5.234375 L 1.359375 -11.953125 L 1.359375 -14.59375 L 18.515625 -21.3125 L 18.515625 -18.484375 L 10.078125 -15.359375 L 4.71875 -13.359375 L 4.71875 -13.203125 L 10.078125 -11.203125 L 18.515625 -8.078125 Z M 18.515625 -5.234375 "/></g></g></g><g fill="#e84947" fill-opacity="1"><g transform="translate(92.666487, 200.999987)"><g><path d="M 0.40625 6.40625 L 11.078125 -28.40625 L 13.484375 -28.40625 L 2.796875 6.40625 Z M 0.40625 6.40625 "/></g></g></g><g fill="#ffffff" fill-opacity="1"><g transform="translate(106.667371, 200.999987)"><g><path d="M 9.40625 0.484375 C 8.363281 0.484375 7.488281 0.320312 6.78125 0 C 6.070312 -0.320312 5.5 -0.757812 5.0625 -1.3125 C 4.625 -1.875 4.3125 -2.554688 4.125 -3.359375 C 3.9375 -4.160156 3.84375 -5.039062 3.84375 -6 L 3.84375 -16.765625 L 0.953125 -16.765625 L 0.953125 -19.234375 L 4 -19.4375 L 4.40625 -24.875 L 7.15625 -24.875 L 7.15625 -19.4375 L 12.40625 -19.4375 L 12.40625 -16.765625 L 7.15625 -16.765625 L 7.15625 -5.953125 C 7.15625 -4.753906 7.375 -3.828125 7.8125 -3.171875 C 8.257812 -2.523438 9.039062 -2.203125 10.15625 -2.203125 C 10.507812 -2.203125 10.882812 -2.253906 11.28125 -2.359375 C 11.675781 -2.460938 12.035156 -2.582031 12.359375 -2.71875 L 13 -0.234375 C 12.46875 -0.046875 11.882812 0.117188 11.25 0.265625 C 10.625 0.410156 10.007812 0.484375 9.40625 0.484375 Z M 9.40625 0.484375 "/></g></g></g><g fill="#ffffff" fill-opacity="1"><g transform="translate(120.186024, 200.999987)"><g><path d="M 3.28125 0 L 3.28125 -28.484375 L 6.5625 -28.484375 L 6.5625 -20.71875 L 6.4375 -16.71875 C 7.375 -17.601562 8.347656 -18.359375 9.359375 -18.984375 C 10.367188 -19.609375 11.554688 -19.921875 12.921875 -19.921875 C 14.972656 -19.921875 16.472656 -19.28125 17.421875 -18 C 18.367188 -16.71875 18.84375 -14.820312 18.84375 -12.3125 L 18.84375 0 L 15.5625 0 L 15.5625 -11.875 C 15.5625 -13.71875 15.265625 -15.046875 14.671875 -15.859375 C 14.085938 -16.671875 13.15625 -17.078125 11.875 -17.078125 C 10.863281 -17.078125 9.972656 -16.820312 9.203125 -16.3125 C 8.429688 -15.8125 7.550781 -15.066406 6.5625 -14.078125 L 6.5625 0 Z M 3.28125 0 "/></g></g></g><g fill="#ffffff" fill-opacity="1"><g transform="translate(141.943862, 200.999987)"><g><path d="M 11.15625 0.484375 C 9.851562 0.484375 8.632812 0.25 7.5 -0.21875 C 6.363281 -0.6875 5.375 -1.351562 4.53125 -2.21875 C 3.695312 -3.082031 3.039062 -4.140625 2.5625 -5.390625 C 2.082031 -6.648438 1.84375 -8.082031 1.84375 -9.6875 C 1.84375 -11.28125 2.085938 -12.707031 2.578125 -13.96875 C 3.066406 -15.238281 3.71875 -16.3125 4.53125 -17.1875 C 5.351562 -18.070312 6.28125 -18.75 7.3125 -19.21875 C 8.351562 -19.6875 9.4375 -19.921875 10.5625 -19.921875 C 11.789062 -19.921875 12.890625 -19.707031 13.859375 -19.28125 C 14.828125 -18.851562 15.640625 -18.238281 16.296875 -17.4375 C 16.953125 -16.632812 17.453125 -15.671875 17.796875 -14.546875 C 18.140625 -13.429688 18.3125 -12.179688 18.3125 -10.796875 C 18.3125 -10.453125 18.304688 -10.113281 18.296875 -9.78125 C 18.285156 -9.445312 18.253906 -9.160156 18.203125 -8.921875 L 5.078125 -8.921875 C 5.210938 -6.835938 5.859375 -5.1875 7.015625 -3.96875 C 8.179688 -2.757812 9.695312 -2.15625 11.5625 -2.15625 C 12.488281 -2.15625 13.34375 -2.296875 14.125 -2.578125 C 14.914062 -2.859375 15.675781 -3.226562 16.40625 -3.6875 L 17.5625 -1.515625 C 16.707031 -0.984375 15.757812 -0.515625 14.71875 -0.109375 C 13.675781 0.285156 12.488281 0.484375 11.15625 0.484375 Z M 5.046875 -11.28125 L 15.4375 -11.28125 C 15.4375 -13.25 15.015625 -14.742188 14.171875 -15.765625 C 13.335938 -16.796875 12.160156 -17.3125 10.640625 -17.3125 C 9.941406 -17.3125 9.28125 -17.175781 8.65625 -16.90625 C 8.03125 -16.644531 7.460938 -16.253906 6.953125 -15.734375 C 6.453125 -15.210938 6.035156 -14.578125 5.703125 -13.828125 C 5.367188 -13.085938 5.148438 -12.238281 5.046875 -11.28125 Z M 5.046875 -11.28125 "/></g></g></g><g fill="#ffffff" fill-opacity="1"><g transform="translate(161.792367, 200.999987)"><g><path d="M 7.59375 0 L -0.28125 -26.078125 L 5.953125 -26.078125 L 9.078125 -13.921875 C 9.484375 -12.484375 9.835938 -11.085938 10.140625 -9.734375 C 10.441406 -8.390625 10.796875 -7 11.203125 -5.5625 L 11.359375 -5.5625 C 11.734375 -7 12.078125 -8.390625 12.390625 -9.734375 C 12.710938 -11.085938 13.0625 -12.484375 13.4375 -13.921875 L 16.515625 -26.078125 L 22.515625 -26.078125 L 14.6875 0 Z M 7.59375 0 "/></g></g></g><g fill="#ffffff" fill-opacity="1"><g transform="translate(184.030159, 200.999987)"><g><path d="M 11.484375 0.484375 C 10.066406 0.484375 8.742188 0.25 7.515625 -0.21875 C 6.296875 -0.6875 5.226562 -1.363281 4.3125 -2.25 C 3.40625 -3.144531 2.695312 -4.234375 2.1875 -5.515625 C 1.6875 -6.796875 1.4375 -8.265625 1.4375 -9.921875 C 1.4375 -11.515625 1.703125 -12.957031 2.234375 -14.25 C 2.773438 -15.550781 3.476562 -16.644531 4.34375 -17.53125 C 5.207031 -18.425781 6.195312 -19.113281 7.3125 -19.59375 C 8.4375 -20.070312 9.597656 -20.3125 10.796875 -20.3125 C 12.210938 -20.3125 13.445312 -20.070312 14.5 -19.59375 C 15.550781 -19.113281 16.429688 -18.445312 17.140625 -17.59375 C 17.847656 -16.738281 18.375 -15.734375 18.71875 -14.578125 C 19.0625 -13.421875 19.234375 -12.160156 19.234375 -10.796875 C 19.234375 -10.265625 19.207031 -9.757812 19.15625 -9.28125 C 19.101562 -8.800781 19.050781 -8.441406 19 -8.203125 L 7.125 -8.203125 C 7.382812 -6.765625 7.972656 -5.703125 8.890625 -5.015625 C 9.816406 -4.335938 10.945312 -4 12.28125 -4 C 13.695312 -4 15.125 -4.4375 16.5625 -5.3125 L 18.515625 -1.765625 C 17.503906 -1.066406 16.378906 -0.515625 15.140625 -0.109375 C 13.898438 0.285156 12.679688 0.484375 11.484375 0.484375 Z M 7.078125 -12.078125 L 14.234375 -12.078125 C 14.234375 -13.203125 13.976562 -14.109375 13.46875 -14.796875 C 12.96875 -15.492188 12.117188 -15.84375 10.921875 -15.84375 C 9.984375 -15.84375 9.160156 -15.535156 8.453125 -14.921875 C 7.753906 -14.304688 7.296875 -13.359375 7.078125 -12.078125 Z M 7.078125 -12.078125 "/></g></g></g><g fill="#ffffff" fill-opacity="1"><g transform="translate(204.748096, 200.999987)"><g><path d="M 2.59375 0 L 2.59375 -19.84375 L 7.40625 -19.84375 L 7.796875 -16.359375 L 7.953125 -16.359375 C 8.679688 -17.722656 9.550781 -18.722656 10.5625 -19.359375 C 11.570312 -19.992188 12.582031 -20.3125 13.59375 -20.3125 C 14.15625 -20.3125 14.613281 -20.28125 14.96875 -20.21875 C 15.332031 -20.15625 15.660156 -20.054688 15.953125 -19.921875 L 15 -14.84375 C 14.625 -14.945312 14.273438 -15.023438 13.953125 -15.078125 C 13.640625 -15.128906 13.269531 -15.15625 12.84375 -15.15625 C 12.09375 -15.15625 11.3125 -14.890625 10.5 -14.359375 C 9.6875 -13.828125 9.015625 -12.878906 8.484375 -11.515625 L 8.484375 0 Z M 2.59375 0 "/></g></g></g><g fill="#ffffff" fill-opacity="1"><g transform="translate(220.666517, 200.999987)"><g><path d="M 8.4375 0.484375 C 7.132812 0.484375 5.796875 0.226562 4.421875 -0.28125 C 3.046875 -0.789062 1.851562 -1.457031 0.84375 -2.28125 L 3.484375 -5.953125 C 4.390625 -5.265625 5.253906 -4.742188 6.078125 -4.390625 C 6.898438 -4.046875 7.738281 -3.875 8.59375 -3.875 C 9.476562 -3.875 10.117188 -4.019531 10.515625 -4.3125 C 10.921875 -4.613281 11.125 -5.03125 11.125 -5.5625 C 11.125 -5.882812 11.007812 -6.171875 10.78125 -6.421875 C 10.550781 -6.671875 10.242188 -6.898438 9.859375 -7.109375 C 9.472656 -7.328125 9.039062 -7.519531 8.5625 -7.6875 C 8.082031 -7.863281 7.585938 -8.0625 7.078125 -8.28125 C 6.460938 -8.519531 5.847656 -8.796875 5.234375 -9.109375 C 4.617188 -9.429688 4.054688 -9.828125 3.546875 -10.296875 C 3.046875 -10.765625 2.632812 -11.3125 2.3125 -11.9375 C 2 -12.5625 1.84375 -13.289062 1.84375 -14.125 C 1.84375 -15.03125 2.019531 -15.867188 2.375 -16.640625 C 2.738281 -17.410156 3.253906 -18.0625 3.921875 -18.59375 C 4.585938 -19.132812 5.382812 -19.554688 6.3125 -19.859375 C 7.25 -20.160156 8.289062 -20.3125 9.4375 -20.3125 C 10.957031 -20.3125 12.289062 -20.050781 13.4375 -19.53125 C 14.582031 -19.019531 15.582031 -18.441406 16.4375 -17.796875 L 13.796875 -14.28125 C 13.078125 -14.8125 12.367188 -15.222656 11.671875 -15.515625 C 10.984375 -15.804688 10.289062 -15.953125 9.59375 -15.953125 C 8.101562 -15.953125 7.359375 -15.4375 7.359375 -14.40625 C 7.359375 -14.082031 7.460938 -13.804688 7.671875 -13.578125 C 7.890625 -13.347656 8.175781 -13.140625 8.53125 -12.953125 C 8.894531 -12.773438 9.3125 -12.597656 9.78125 -12.421875 C 10.25 -12.242188 10.734375 -12.0625 11.234375 -11.875 C 11.878906 -11.632812 12.515625 -11.359375 13.140625 -11.046875 C 13.765625 -10.742188 14.335938 -10.363281 14.859375 -9.90625 C 15.378906 -9.457031 15.796875 -8.90625 16.109375 -8.25 C 16.429688 -7.601562 16.59375 -6.828125 16.59375 -5.921875 C 16.59375 -5.015625 16.421875 -4.171875 16.078125 -3.390625 C 15.734375 -2.617188 15.210938 -1.945312 14.515625 -1.375 C 13.828125 -0.800781 12.972656 -0.347656 11.953125 -0.015625 C 10.941406 0.316406 9.769531 0.484375 8.4375 0.484375 Z M 8.4375 0.484375 "/></g></g></g><g fill="#ffffff" fill-opacity="1"><g transform="translate(238.384751, 200.999987)"><g><path d="M 7.59375 0.484375 C 6.6875 0.484375 5.867188 0.328125 5.140625 0.015625 C 4.410156 -0.285156 3.789062 -0.707031 3.28125 -1.25 C 2.769531 -1.800781 2.375 -2.4375 2.09375 -3.15625 C 1.820312 -3.875 1.6875 -4.660156 1.6875 -5.515625 C 1.6875 -7.597656 2.5625 -9.222656 4.3125 -10.390625 C 6.070312 -11.566406 8.914062 -12.359375 12.84375 -12.765625 C 12.789062 -13.640625 12.53125 -14.335938 12.0625 -14.859375 C 11.59375 -15.378906 10.8125 -15.640625 9.71875 -15.640625 C 8.863281 -15.640625 8.015625 -15.476562 7.171875 -15.15625 C 6.335938 -14.84375 5.441406 -14.40625 4.484375 -13.84375 L 2.359375 -17.71875 C 3.640625 -18.488281 4.976562 -19.113281 6.375 -19.59375 C 7.78125 -20.070312 9.269531 -20.3125 10.84375 -20.3125 C 13.40625 -20.3125 15.359375 -19.582031 16.703125 -18.125 C 18.046875 -16.675781 18.71875 -14.421875 18.71875 -11.359375 L 18.71875 0 L 13.921875 0 L 13.515625 -2.046875 L 13.359375 -2.046875 C 12.503906 -1.296875 11.609375 -0.6875 10.671875 -0.21875 C 9.742188 0.25 8.71875 0.484375 7.59375 0.484375 Z M 9.59375 -4.078125 C 10.257812 -4.078125 10.832031 -4.222656 11.3125 -4.515625 C 11.800781 -4.804688 12.3125 -5.222656 12.84375 -5.765625 L 12.84375 -9.234375 C 10.757812 -8.941406 9.316406 -8.515625 8.515625 -7.953125 C 7.710938 -7.398438 7.3125 -6.734375 7.3125 -5.953125 C 7.3125 -5.316406 7.519531 -4.84375 7.9375 -4.53125 C 8.351562 -4.226562 8.90625 -4.078125 9.59375 -4.078125 Z M 9.59375 -4.078125 "/></g></g></g><g fill="#ffffff" fill-opacity="1"><g transform="translate(259.462661, 200.999987)"><g><path d="M 2.59375 0 L 2.59375 -19.84375 L 7.40625 -19.84375 L 7.796875 -17.3125 L 7.953125 -17.3125 C 8.804688 -18.113281 9.738281 -18.8125 10.75 -19.40625 C 11.769531 -20.007812 12.957031 -20.3125 14.3125 -20.3125 C 16.476562 -20.3125 18.046875 -19.601562 19.015625 -18.1875 C 19.992188 -16.78125 20.484375 -14.820312 20.484375 -12.3125 L 20.484375 0 L 14.59375 0 L 14.59375 -11.5625 C 14.59375 -13 14.398438 -13.984375 14.015625 -14.515625 C 13.628906 -15.046875 13.007812 -15.3125 12.15625 -15.3125 C 11.414062 -15.3125 10.773438 -15.144531 10.234375 -14.8125 C 9.703125 -14.476562 9.117188 -14.007812 8.484375 -13.40625 L 8.484375 0 Z M 2.59375 0 "/></g></g></g><g fill="#e84947" fill-opacity="1"><g transform="translate(282.343141, 200.999987)"><g><path d="M 1.359375 -5.234375 L 1.359375 -8.078125 L 9.796875 -11.203125 L 15.15625 -13.203125 L 15.15625 -13.359375 L 9.796875 -15.359375 L 1.359375 -18.484375 L 1.359375 -21.3125 L 18.515625 -14.59375 L 18.515625 -11.953125 Z M 1.359375 -5.234375 "/></g></g></g></svg>